<?xml version="1.0" encoding="utf-8"?>
<svg viewBox="0 0 1024 1024" xmlns="http://www.w3.org/2000/svg" xmlns:bx="https://boxy-svg.com">
  <defs>
    <linearGradient id="color-1" bx:pinned="true">
      <title>Blue - background</title>
      <stop style="stop-color: rgb(41, 38, 65);"/>
    </linearGradient>
    <linearGradient id="color-0">
      <title>White - bus</title>
      <stop style="stop-color: rgb(255, 255, 255);"/>
    </linearGradient>
  </defs>
  <rect width="1023.999" height="1024" style="fill: url(#color-1);">
    <title>Background</title>
  </rect>
  <g transform="matrix(0.911458, 0, 0, 0.911458, 45.333412, 45.333496)" style="">
    <title>Bus</title>
    <path d="M 163.399 314.728 L 768.379 314.097 L 811.645 314.728 C 904.264 324.098 895.798 575.777 895.798 586.098 L 895.798 643.699 C 895.798 663.252 879.951 679.099 860.399 679.099 L 833.929 679.099 C 836.997 670.848 838.666 661.917 838.666 652.597 C 838.666 610.497 804.538 576.369 762.438 576.369 C 720.338 576.369 686.209 610.497 686.209 652.597 C 686.209 661.917 687.877 670.848 690.945 679.099 L 331.248 679.099 C 334.315 670.848 335.983 661.917 335.983 652.597 C 335.983 610.497 301.855 576.369 259.755 576.369 C 217.656 576.369 183.526 610.497 183.526 652.597 C 183.526 661.917 185.196 670.848 188.263 679.099 L 163.399 679.099 C 143.847 679.099 128 663.252 128 643.699 L 128 350.127 C 128 330.575 143.847 314.728 163.399 314.728 Z M 801.014 345.846 L 711.926 345.422 C 709.85 345.422 708.165 347.109 708.165 349.185 L 708.564 484.054 C 727.23 491.019 743.093 504.189 752.517 521.401 L 854.144 521.401 C 856.086 521.401 857.683 519.931 857.883 518.047 C 858.163 480.309 854.161 351.222 801.014 345.846 Z M 162.377 349.185 L 162.377 479.525 C 162.377 481.602 164.062 483.287 166.139 483.287 L 313.572 483.287 C 315.648 483.287 317.335 481.602 317.335 479.525 L 317.335 349.185 C 317.335 347.109 315.648 345.422 313.572 345.422 L 166.139 345.422 C 164.062 345.422 162.377 347.109 162.377 349.185 Z M 340.6 349.185 L 340.6 479.525 C 340.6 481.602 342.285 483.287 344.362 483.287 L 502.897 483.287 C 504.974 483.287 506.659 481.602 506.659 479.525 L 506.659 349.185 C 506.659 347.109 504.974 345.422 502.897 345.422 L 344.362 345.422 C 342.285 345.422 340.6 347.109 340.6 349.185 Z M 684.891 479.525 L 684.891 349.185 C 684.891 347.109 683.206 345.422 681.13 345.422 L 533.695 345.422 C 532.218 345.422 530.94 346.27 530.325 347.508 C 529.901 348.122 529.654 348.857 529.654 349.655 L 529.654 479.997 C 529.654 482.074 531.339 483.759 533.416 483.759 L 680.85 483.759 C 682.318 483.759 683.596 482.912 684.22 481.674 C 684.642 481.068 684.891 480.324 684.891 479.525 Z" style="fill: url(#color-0);">
      <title>Main</title>
    </path>
    <circle style="fill: url(#color-0);" cx="762.438" cy="652.596" r="57.307">
      <title>Wheel right</title>
    </circle>
    <circle style="fill: url(#color-0);" cx="259.755" cy="652.596" r="57.307">
      <title>Wheel left</title>
    </circle>
  </g>
</svg>